<svg version="1.2" xmlns="http://www.w3.org/2000/svg" viewBox="0 0 1080 1080" width="1080" height="1080">
	<defs>
		<clipPath clipPathUnits="userSpaceOnUse" id="cp1">
			<path d="m403.73 418c129.28 141.9 38.43 245.24-158.35 217.42-41.27-15.06-120.26-37.84-120.26-37.84 0 0-22.82 5.73-36.72-14.08-13.91-19.82-84.89-152.84-12.08-213.74 72.81-60.9 196.26-104.42 216.13-96.66 11.1 4.34 13.9 32.07 26.25 43.38 2.13 1.95 6.63 6.24 12.62 12.01 54.45 39.42 91.19 86.68 91.19 86.68 4.76 7.9-21.69-2.13-18.78 2.83z"/>
		</clipPath>
		<clipPath clipPathUnits="userSpaceOnUse" id="cp2">
			<path d="m217.6 698.21c24.95 2.14 35.59-4.25 37.44-13.28 1.85-9.03-3.37-71.27-3.37-71.27 0 0-45.56-2.73-96.47-37.81-13.43 14.78-25.26 16.56-33.34 20.44 10.07 43.75 14.75 89.23 43.92 91.49 13.34 2.88 24.64 1.44 24.64 1.44 0 0 2.24 6.86 27.18 8.99z"/>
		</clipPath>
		<clipPath clipPathUnits="userSpaceOnUse" id="cp3">
			<path d="m95.64 477.23c-19.06-11.64-30.81-30.45-40.04-44.56-16.21-24.79-5.43-52.95-5.43-52.95 0 0 7.32-34.22 75.66-35.32 68.34-1.1 101.74 22.78 101.43 48.3-0.52 44.31-48.69 76.35-89.53 96.77-9.65 4.83-15.2 4.18-42.09-12.24z"/>
		</clipPath>
		<clipPath clipPathUnits="userSpaceOnUse" id="cp4">
			<path d="m730.56 148.03c3.32 14.76 35.79 27.12 54.59 96.14 11.27 37.8 40 37.16 45.89 35.02 5.89-2.13 83.78-72.13 26.81-144.07-42.8-54.05-130.25-4.06-127.29 12.91z"/>
		</clipPath>
	</defs>
	<style>
		.s0 { fill: #9c643f } 
		.s1 { fill: #794e37 } 
		.s2 { fill: #b47b4f } 
		.s3 { fill: #d39a66 } 
		.s4 { fill: #fee6b7 } 
		.s5 { fill: #ddb378 } 
		.s6 { fill: #563425 } 
		.s7 { fill: #372718 } 
		.s8 { fill: #a46b43 } 
	</style>
	<g id="Beaver">
		<path id="NeckShadow" class="s0" d="m442.62 589.93c-3.98 38.91 98.62 98.17 222.99 22.55-24.43 68.1-86.73 83.72-113.51 94.03-28.46 10.95-57.18 23.99-69.12 112.52-2.09 18.75 66.14-29.87 70.81-21.91 9.73 18.57-43.04 85.29-91.27 137.74-48.2 59.26-43.26 123.2-43.26 123.2 0 0-103.41-16.53-170.26-62.79 20.27-31.22 52.75-112.07 46.56-108.09-6.19 3.98-20.54 13.24-23.88 10.57-3.34-2.67 11.24-46.62 17.13-63.42 5.9-16.81 39.32-146.68-39.59-149.35-16.01-0.76-3.84-58.01-3.84-58.01l200.45-56.76"/>
		<path id="RightEar" class="s1" d="m233.75 112.05c39.52-42.26 79.42-37.17 120.31-62.29-6.46 6.73-124.38 158.19-124.38 158.19l-25.58-16.57c-5.71-16.44-10.97-35.9 29.65-79.33z"/>
		<path id="Body" fill-rule="evenodd" class="s2" d="m417.2 1058.08c183.78 40.62 510.47-12.46 619.12-224.42-11.44-42.7-88.07-191.75-89.36-217.56 5.87-68.74 1.54-178.63-12.45-198.12 6.07 4.48 26.3 14.39 28.07 11.13-28.09-44.56-107.38-276.27-213.47-329.67-67.31-33.88-119.21-59.35-249.17-56.94 9.36-12.14 23.1-17.64 20.74-27.14-2.42-9.78-62.62-15.08-119.53 36.81-9.82-0.82 20.02-31.28 10.49-36.93-13.59-8.06-88.82 29-107.62 55.35-18.8 26.34-68.91 60.61-104.28 104.89-37.31 70.17-2.23 85.49-90.82 141.15-35.57 25.17-62.87 60.37-56.62 72.18 6.25 11.81 386.25 207.97 386.25 207.97 0 0 6.19 30.95 31.72 43.06 20.3 9.64 97.58 40.72 192.92-20.12-25.07 31.21-40.93 68.3-127.69 86.39-33.26 14.7-58.89 80.7-59.48 121.31-0.08 30.81 47.48-21.64 70.05-19.21 18.58 2-60.14 95.88-79.19 118.12-23 26.85-58.85 80.87-49.68 131.75z"/>
		<g clip-path="url(#cp1)">
			<path id="Snout" class="s3" d="m403.73 418c129.28 141.9 38.43 245.24-158.35 217.42-41.27-15.06-120.26-37.84-120.26-37.84 0 0-22.82 5.73-36.72-14.08-13.91-19.82-84.89-152.84-12.08-213.74 72.81-60.9 196.26-104.42 216.13-96.66 11.1 4.34 13.9 32.07 26.25 43.38 2.13 1.95 6.63 6.24 12.62 12.01 54.45 39.42 91.19 86.68 91.19 86.68 4.76 7.9-21.69-2.13-18.78 2.83z"/>
			<path id="Mouth" class="s1" d="m121 482.06l14.49 1.21c0 0-2.86 67.38 29.35 87.13 38.27 23.45 67.09 41.28 117.97 39.66 41.35-1.31 18.52 7.98-1.21 7.25-34.45-1.28-73.33-10.47-92.96-20.87-27.74-14.7-28.58-16.11-32.62-20.19-4.13 6.86-35.02 21.74-35.02 21.74l-27.77 4.83c0 0-4.26-13.75-5.65-17.26 33.64 0.96 33.81-2.84 40.99-8.62 7.66-6.18 13.73-10.97 9.34-18.8-16.23-35.47-16.91-76.08-16.91-76.08z"/>
		</g>
		<g clip-path="url(#cp2)">
			<path id="Teeth" class="s4" d="m217.6 698.21c24.95 2.14 35.59-4.25 37.44-13.28 1.85-9.03-3.37-71.27-3.37-71.27 0 0-45.56-2.73-96.47-37.81-13.43 14.78-25.26 16.56-33.34 20.44 10.07 43.75 14.75 89.23 43.92 91.49 13.34 2.88 24.64 1.44 24.64 1.44 0 0 2.24 6.86 27.18 8.99z"/>
			<path id="TeethShadow" class="s5" d="m154.81 571.42c2.98-16.67 13.92-1.85 12.62 8.83-2.5 20.63 10.64 90.95 26.43 117.54-4.97 0.62-10.57 0.62-10.57 0.62-9.95-19.28-31.46-110.32-28.48-126.99z"/>
		</g>
		<g clip-path="url(#cp3)">
			<path id="Nose" class="s1" d="m95.64 477.23c-19.06-11.64-30.81-30.45-40.04-44.56-16.21-24.79-5.43-52.95-5.43-52.95 0 0 7.32-34.22 75.66-35.32 68.34-1.1 101.74 22.78 101.43 48.3-0.52 44.31-48.69 76.35-89.53 96.77-9.65 4.83-15.2 4.18-42.09-12.24z"/>
			<path id="NoseInner" class="s6" d="m165.49 413.01c35.52-2.47 53.29 50.82 20.72 56.25-25.82 28.92-72.41-52.66-20.72-56.25zm-77.66 2.75c-6.56-2.85-27.99-6.12-27.21 20.42 0.78 26.53 2.96 25.91 2.96 25.91l8.08 9.33c0 0 22.39 0 26.43-20.84 1.8-9.25 4.04-28.6-10.26-34.82z"/>
		</g>
		<g clip-path="url(#cp4)">
			<path id="LeftEar" class="s1" d="m730.56 148.03c3.32 14.76 35.79 27.12 54.59 96.14 11.27 37.8 40 37.16 45.89 35.02 5.89-2.13 83.78-72.13 26.81-144.07-42.8-54.05-130.25-4.06-127.29 12.91z"/>
			<path id="LeftEarInner" class="s6" d="m828.97 153.92c27.03 39.75-56.54 130.01-77.33 81.68-23.92-55.59 61.01-105.7 77.33-81.68z"/>
		</g>
		<path id="Eyes" class="s7" d="m510.22 219.23c21.52-0.22 24.95 26.89 24.97 40.64 0.02 13.76-0.39 45.32-24.15 44.68-23.76-0.63-24.54-24.83-24.15-37.43 0.39-12.61 1.8-47.68 23.33-47.89zm-277.95-5.59c19.76 0.57 15.58 43.33 14.32 48.65-1.27 5.31-18.29 22.02-24.16 20.53-8.5-2.17-9.54-13.47-8.85-33.56 0.61-17.81 7.5-35.95 18.69-35.62z"/>
		<path id="LeftEyebrow" class="s1" d="m517.08 152.4c51.03 2.81 71.06 32.65 64.75 37.49-8.19 6.29-21.01-20.49-63.45-21.53-42.44-1.05-47.83 15.81-56.22 12.96-8.26-2.82 2.63-31.8 54.92-28.92z"/>
		<path id="RightEyebrow" class="s1" d="m236.8 151.87c-28.12 1.1-40.91 30.22-37.75 35.26 4.11 6.55 12.76-19.75 36.06-19.37 23.3 0.37 25.23 17.38 30 14.81 4.69-2.54 0.49-31.83-28.31-30.7z"/>
		<path id="Freckles1" class="s8" d="m315.99 523.28c14.32 2.87 13.59 18.35-3.57 16.65-13.08-1.3-10.15-19.39 3.57-16.65z"/>
		<path id="Freckles2" class="s8" d="m360.67 569.17c14.32 2.87 13.59 18.35-3.57 16.65-13.08-1.3-10.15-19.39 3.57-16.65z"/>
		<path id="Freckles3" class="s8" d="m392.54 540.91c-12.61-2.69-11.8-16.38 3.34-14.68 11.54 1.29 8.76 17.26-3.34 14.68z"/>
	</g>
</svg>